<?xml version="1.0" standalone="no"?>
<!DOCTYPE svg PUBLIC "-//W3C//DTD SVG 20010904//EN"
 "http://www.w3.org/TR/2001/REC-SVG-20010904/DTD/svg10.dtd">
<svg version="1.0" xmlns="http://www.w3.org/2000/svg"
 width="1280.000000pt" height="799.000000pt" viewBox="0 0 1280.000000 799.000000"
 preserveAspectRatio="xMidYMid meet">
<metadata>
Created by potrace 1.15, written by Peter Selinger 2001-2017
</metadata>
<g transform="translate(0.000000,799.000000) scale(0.100000,-0.100000)"
fill="#000000" stroke="none">
<path d="M585 7905 c-259 -47 -459 -242 -501 -488 -12 -70 -14 -568 -12 -3417
l3 -3335 28 -78 c48 -137 114 -224 242 -320 86 -65 146 -96 240 -124 57 -17
308 -18 5770 -21 3942 -2 5732 1 5780 8 275 41 485 233 530 485 21 116 21
6640 1 6755 -17 97 -60 187 -133 280 -96 122 -214 204 -359 247 -56 17 -339
18 -5789 20 -4639 1 -5743 -1 -5800 -12z"/>
</g>
</svg>
